<?xml version="1.0" encoding="UTF-8"?>
<svg aria-labelledby="simpleicons-codewars-icon" role="img" viewBox="0 0 24 24" xmlns="http://www.w3.org/2000/svg">
<title>Codewars icon</title>
<path d="m0.76156 12.204l-0.083036-0.046856c-0.17574-0.099167-0.32028-0.24946-0.41617-0.43274-0.13801-0.26379-0.19461-0.50661-0.18934-0.7523l0.0028291-0.13184c0.0041686-0.19427 0.055121-0.38429 0.14814-0.55246l0.075481-0.13647c0.044095-0.079726 0.09553-0.15475 0.15357-0.22401 0.053998-0.06443 0.071024-0.15413 0.044658-0.23526l-0.050348-0.15493c-0.061697-0.18986-0.09884-0.3875-0.11044-0.58767l-0.0086231-0.14879c-0.012925-0.22302 0.058191-0.44246 0.19809-0.61123l0.09667-0.11662c0.079436-0.095832 0.18314-0.16621 0.29916-0.203 0.10613-0.033663 0.17993-0.13441 0.18344-0.25041l0.010157-0.33599c0.0082482-0.27283 0.13145-0.52786 0.33651-0.69656l0.23307-0.19174c0.060004-0.049364 0.11323-0.10713 0.15819-0.17168 0.043333-0.062221 0.060908-0.14008 0.048762-0.21601-0.012497-0.078129 0.015829-0.11969 0.057796-0.12704 0.15509 0.061386 0.26268 0.036525 0.32611-0.043866l0.13503-0.17116c0.10822-0.13717 0.22438-0.26727 0.34782-0.38956 0.11068-0.10964 0.14188-0.28111 0.077459-0.42565l-0.1171-0.26273c-0.023006-0.051619-0.0016712-0.11298 0.047653-0.13706 0.13659-0.0096668 0.22349 0.046071 0.26659 0.13459l0.033214 0.068231c0.058907 0.12101 0.19528 0.1764 0.31677 0.12866 0.20502-0.080562 0.382-0.11134 0.55964-0.10579l0.31893 0.0099679c0.21928 0.0068535 0.40888-0.15884 0.44153-0.38587 0.040306-0.28025 0.13403-0.48556 0.27782-0.64972 0.14575-0.16639 0.32024-0.30246 0.51427-0.40105 0.26545-0.13487 0.42152-0.34278 0.47236-0.58881 0.067424-0.32633 0.23693-0.56502 0.47492-0.70285l0.75991-0.4401 0.21771-0.12327c0.13109-0.07406 0.24853-0.17196 0.34682-0.28911l0.20883-0.24891c0.081756-0.097447 0.18994-0.16652 0.31014-0.19801 0.12234-0.032055 0.24865-0.044362 0.37454-0.036497l0.41166 0.025718c0.17494 0.010929 0.34685 0.052695 0.5085 0.12354l0.11173 0.048964c0.080363 0.035219 0.17305 0.016897 0.2356-0.046571l0.085742-0.086999 0.41961-0.43513c0.090981-0.094434 0.21904-0.1387 0.34587-0.11957 0.1333 0.020112 0.26236 0.063768 0.38169 0.1291 0.1749 0.095763 0.33147 0.13604 0.4904 0.13604h0.098578c0.22616 0 0.45147 0.028986 0.6709 0.08631l0.14843 0.038777c0.14674 0.038333 0.30121-0.018156 0.3932-0.14379 0.034583-0.04723 0.099203-0.056179 0.14433-0.019988 0.021718 0.017416 0.035918 0.043163 0.039464 0.071555 0.025556 0.20462 0.1434 0.35028 0.30498 0.40178l0.15762 0.050238c0.164 0.052271 0.30778 0.15794 0.41043 0.30163 0.10506 0.14706 0.22426 0.28245 0.35572 0.40405l0.08989 0.083141c0.10947 0.10125 0.253 0.15266 0.3988 0.14282l0.11975-0.0080754c0.072008-0.0048561 0.14412-0.0077998 0.21627-0.0088281l0.251-0.0035774c0.23666-0.0033731 0.47118 0.047181 0.68731 0.14815 0.22742 0.10625 0.45721 0.11749 0.66786 0.042854 0.21566-0.076414 0.445-0.10098 0.67098-0.071875l0.43458 0.055974c0.19438 0.025037 0.37447 0.11979 0.50962 0.26813l0.048782 0.053545c0.10658 0.11698 0.20239 0.24421 0.28615 0.38001 0.078374 0.12705 0.21362 0.20305 0.35811 0.20126l0.60888-0.0075706c0.14668-0.0018237 0.291 0.03869 0.41711 0.11709 0.1277 0.079386 0.24213 0.1801 0.33875 0.29815l0.096575 0.11799c0.12027 0.14694 0.18351 0.33574 0.17722 0.52911-0.0054196 0.16652 0.11834 0.30652 0.27739 0.31382l0.19157 0.0087869c0.14322 0.0065693 0.27161 0.094394 0.33482 0.22904l0.088588 0.18869 0.27112 0.59861c0.038862 0.08597 0.053814 0.18165 0.043145 0.2761-0.0099954 0.088487 0.028933 0.17523 0.10039 0.22368l0.10053 0.068173c0.13234 0.089742 0.20245 0.25206 0.17939 0.41531l-0.066465 0.47051-0.027249 0.19299c-0.016657 0.11797 0.032478 0.23555 0.12656 0.30284 0.14522 0.10387 0.21692 0.23851 0.22331 0.3848l0.0089845 0.20568c0.0046494 0.10644-0.030133 0.21065-0.097097 0.2909-0.06682 0.080086-0.10058 0.18463-0.093877 0.29072l0.01533 0.24268c0.010306 0.16314 0.087473 0.31366 0.21166 0.41285 0.12529 0.10008 0.20816 0.24751 0.23087 0.41073 0.034368 0.24698 0.046852 0.44944 0.043805 0.65197l-0.0033718 0.22415c-0.0012148 0.080758 0.011013 0.16112 0.036135 0.23749 0.02464 0.074902 0.071957 0.13935 0.13477 0.18355l0.21056 0.14819c0.1841 0.12956 0.32712 0.31361 0.4108 0.52863 0.08555 0.21982 0.12838 0.4487 0.12838 0.67977v0.071924c0 0.18422-0.02714 0.36733-0.080463 0.5429-0.054039 0.17792-0.040834 0.34624 0.029835 0.49127 0.073094 0.15 0.12362 0.31091 0.14979 0.47705 0.034001 0.21585 0.015187 0.40088-0.048851 0.57094l-0.026652 0.070774c-0.046614 0.12379-0.12409 0.23223-0.22436 0.31402-0.1142 0.093162-0.18908 0.16044-0.2608 0.2313-0.066533 0.065741-0.094188 0.16382-0.072415 0.25683l0.032263 0.13782c0.044418 0.18974 0.047318 0.38754 0.008486 0.57862l-0.017165 0.084464c-0.028726 0.14135-0.079576 0.27676-0.15049 0.40076-0.070202 0.12275-0.16964 0.22433-0.2886 0.29481l-0.16048 0.095078c-0.077434 0.045877-0.12534 0.13176-0.12544 0.22488-1.029e-4 0.097241-0.033331 0.19126-0.093717 0.26516l-0.15613 0.19108c-0.10205 0.1249-0.22528 0.22896-0.3635 0.30695-0.14196 0.080097-0.26 0.17748-0.35951 0.2938-0.0991 0.11585-0.17318 0.25268-0.21721 0.40119-0.051922 0.17516-0.18395 0.27696-0.33339 0.27696h-0.54313c-0.14083 0-0.26886 0.085505-0.32818 0.21917-0.068712 0.15482-0.14452 0.27005-0.23703 0.36966-0.091462 0.098484-0.15571 0.22107-0.1859 0.35472-0.027618 0.12224-0.12746 0.18676-0.22707 0.16211-0.13316-0.048486-0.25951-0.0014562-0.32193 0.10643-0.12321 0.21295-0.23747 0.35629-0.37027 0.47934l-0.070182 0.065028c-0.12131 0.1124-0.27682 0.17607-0.43881 0.17967-0.17763 0.00394-0.27077 0.079401-0.29984 0.18745-0.033804 0.12566-0.054018 0.24004-0.064137 0.35564-0.010017 0.11443-0.04399 0.22515-0.099505 0.32429l-0.041573 0.074243c-0.083433 0.149-0.17506 0.29281-0.27441 0.4307l-0.045972 0.063806c-0.12638 0.17541-0.30557 0.30111-0.50863 0.35682-0.22413 0.06148-0.4338 0.08976-0.64434 0.08976h-0.14038c-0.10998 0-0.21225 0.059152-0.27076 0.15661l-0.059211 0.098625c-0.023208 0.038656-0.045848 0.077683-0.067912 0.11707l-0.12352 0.22048c-0.1002 0.17886-0.26475 0.30821-0.45681 0.35909-0.2197 0.058213-0.43398 0.077469-0.64702 0.060346l-0.16703-0.013426c-0.13602-0.010933-0.26982-0.042314-0.39729-0.093177-0.11334-0.045227-0.24158-0.0050726-0.31256 0.09787-0.089249 0.12944-0.2077 0.21643-0.3431 0.2569l-0.29286 0.087515c-0.20322 0.060729-0.41834 0.062942-0.62267 0.0064068l-0.158-0.043717c-0.10256-0.028379-0.20239-0.066657-0.29819-0.11434-0.094213-0.046895-0.19889-0.065929-0.3027-0.055043l-0.12153 0.012745c-0.18531 0.019433-0.37244 0.003948-0.55253-0.045721l-0.27026-0.074538c-0.12258-0.033808-0.22716-0.11749-0.29046-0.23243-0.061885-0.11236-0.17287-0.18542-0.29644-0.19514l-0.29107-0.022901c-0.18896-0.014867-0.36706-0.098178-0.50367-0.2356-0.15472-0.15564-0.2736-0.2627-0.39784-0.36267l-0.13373-0.10761c-0.07183-0.057798-0.1454-0.11319-0.2206-0.16608l-0.12723-0.089494c-0.15803-0.11116-0.33786-0.18384-0.52626-0.21271l-0.60673-0.09296c-0.052748-0.0080818-0.10535-0.017197-0.15777-0.027342l-0.21713-0.04202c-0.11501-0.022258-0.21517-0.095572-0.2746-0.201-0.054152-0.096073-0.16626-0.13779-0.26622-0.09907-0.20412 0.079076-0.36165 0.11404-0.52153 0.12467l-0.14782 0.0098284c-0.24841 0.016516-0.49705-0.028376-0.72582-0.13105-0.23986-0.10765-0.41786-0.25517-0.55048-0.44301-0.13014-0.18434-0.32225-0.31015-0.53757-0.35205l-0.27832-0.054161c-0.20666-0.040215-0.40328-0.12422-0.57778-0.24685-0.1913-0.13443-0.30564-0.26755-0.38418-0.42353-0.078927-0.15675-0.12617-0.32883-0.13879-0.50552l-0.0053824-0.075351c-0.014724-0.20613-0.15092-0.38068-0.34096-0.43699-0.22623-0.067037-0.40187-0.16559-0.55148-0.29971-0.1434-0.12856-0.22256-0.31881-0.21481-0.51625l0.017387-0.44293c0.0064128-0.16336-0.05673-0.32129-0.1724-0.43119-0.11728-0.11144-0.18976-0.26532-0.20278-0.43054l-0.028267-0.35866c-0.020643-0.26192-0.063995-0.52134-0.12952-0.77504-0.05931-0.22964 0.03217-0.4588 0.21905-0.56957l0.079266-0.046984c0.10574-0.062679 0.14291-0.2032 0.083019-0.31386-0.0052351-0.0096726-0.033091-0.044785-0.083568-0.10534-0.083116-0.096733-0.19135-0.16604-0.31149-0.19945-0.061162-0.017009-0.097568-0.082686-0.081314-0.14669 0.0032058-0.012625 0.034012-0.054262 0.092419-0.12491 0.059695-0.067395 0.057558-0.17219-0.0048298-0.23686-0.071852-0.07448-0.11371-0.17493-0.11697-0.28072l-0.021173-0.68645c-0.0045158-0.14641 0.015382-0.29252 0.0588-0.43178 0.037996-0.12187-0.012777-0.25473-0.1206-0.31557zm9.9058-1.3218c0.060362-0.076514 0.051693-0.18938-0.019573-0.25482-0.084822-0.077889-0.15822-0.16843-0.21781-0.26871l-0.096584-0.16251c-0.073435-0.12356-0.16243-0.23621-0.26459-0.33492l-0.02163-0.020899c-0.087759-0.084792-0.16354-0.18223-0.22505-0.28937-0.056958-0.099207-0.056216-0.22339 0.0019207-0.32185l0.056013-0.094857c0.06358-0.10767 0.096204-0.23222 0.093976-0.35877l-6.2709e-4 -0.035622c-0.0018242-0.10363-0.02983-0.20491-0.081171-0.29355-0.051851-0.089517-0.088218-0.1879-0.10743-0.29063l-0.0085196-0.04555c-0.023912-0.12784 0.0051747-0.2603 0.080017-0.36439l0.0073825-0.010268c0.080638-0.11215 0.13887-0.24015 0.17122-0.37636l0.0079646-0.033532c0.02625-0.11051 0.0086289-0.22744-0.048847-0.32414-0.05683-0.095608-0.069059-0.21306-0.033239-0.31924l0.06771-0.2007c0.060078-0.17808 0.15384-0.34165 0.27569-0.48095l0.13475-0.15405c0.033264-0.038028 0.067156-0.075451 0.10166-0.11225l0.057032-0.060829c0.061877-0.065996 0.071098-0.16834 0.022099-0.24528-0.054134-0.085-0.076316-0.18795-0.062277-0.28904l0.020719-0.14918c0.027831-0.2004 0.10693-0.38919 0.22891-0.54638l0.036217-0.046671c0.14535-0.18731 0.33894-0.32712 0.55785-0.40289l0.26504-0.091729c0.12683-0.043895 0.21247-0.16794 0.21247-0.30774 0-0.15217 0.046338-0.30037 0.13229-0.42311l0.039388-0.056246c0.11428-0.1632 0.2165-0.33528 0.30577-0.51475l0.063174-0.12701c0.017471-0.035127 0.028046-0.073558 0.031102-0.11303 0.012646-0.16333-0.10362-0.30646-0.25969-0.3197l-0.41757-0.035408c-0.24824-0.02105-0.49777-0.019313-0.74572 0.005192l-0.84897 0.083901c-0.12581 0.012434-0.22489 0.11767-0.23491 0.24951-0.010418 0.13715-0.10102 0.25317-0.22738 0.29116l-0.35565 0.10694c-0.031128 0.0093598-0.062154 0.01909-0.093071 0.02919l-0.30045 0.098145c-0.22209 0.072549-0.40761 0.23435-0.51584 0.44988l-0.067828 0.13508c-0.11035 0.21977-0.27674 0.40323-0.4807 0.53002-0.19455 0.12094-0.31741 0.33668-0.3265 0.57329l-0.0043307 0.11277c-0.007425 0.19335-0.07318 0.37927-0.18783 0.53109l-0.05836 0.077279c-0.072769 0.096359-0.089427 0.22662-0.043428 0.33961 0.049183 0.12082 0.073241 0.2512 0.070577 0.38249l-0.010784 0.53142c-0.0027466 0.13535-0.084408 0.25514-0.20581 0.3019-0.12588 0.048483-0.22061 0.1591-0.25292 0.29534l-0.048282 0.20358c-0.046136 0.19454 0.027572 0.39865 0.18512 0.51264 0.16625 0.12028 0.27435 0.31022 0.29624 0.52049l0.019274 0.18517c0.022045 0.2118 0.13874 0.40011 0.31453 0.50756 0.18082 0.11053 0.31989 0.28268 0.39395 0.48766l0.060136 0.16645c0.073112 0.20237 0.25315 0.34078 0.45953 0.3533l0.056945 0.0034543c0.17814 0.010806 0.34151 0.10719 0.44257 0.2611 0.10297 0.15683 0.25875 0.26717 0.43615 0.30892l0.27824 0.065481c0.17546 0.041293 0.33612 0.13386 0.4633 0.26693l0.0057919 0.0060603c0.0054483 0.0057007 0.011153 0.011127 0.017094 0.01626 0.10342 0.089358 0.25649 0.074056 0.34187-0.034179l0.061711-0.078224zm1.134-0.92051c0.0031436 0.0021718 0.0063567 0.0042315 0.0096337 0.0061755 0.080067 0.047498 0.18177 0.018076 0.22715-0.065716l0.027351-0.050495c0.076747-0.14169 0.16408-0.27681 0.26117-0.4041l0.21701-0.2845c0.013721-0.017988 0.027309-0.036087 0.040762-0.054295l0.23959-0.32427c0.084151-0.11389 0.21519-0.17891 0.35271-0.175 0.13037 0.0037029 0.2481-0.081152 0.29127-0.20994l2.354e-4 -7.0231e-4c0.047843-0.14272 0.12596-0.27223 0.22849-0.37883l0.053569-0.055692c0.085942-0.089348 0.19206-0.15453 0.3085-0.18949 0.11773-0.035347 0.23968-0.052966 0.36216-0.052324l0.30786 0.0016123c0.10761 5.6355e-4 0.20823-0.055761 0.26751-0.14975 0.062025-0.098344 0.14986-0.17586 0.25295-0.22325l0.095709-0.043991c0.16803-0.077232 0.3467-0.12609 0.52935-0.14476l0.19267-0.019695c0.12703-0.012985 0.25502 0.010828 0.36999 0.068836 0.10874 0.054865 0.23721 0.044727 0.33686-0.026585l0.065764-0.047063c0.14922-0.10679 0.31994-0.17618 0.49892-0.2028l0.016994-0.0025275c0.19222-0.028589 0.38671-0.036721 0.5805-0.024273l0.10536 0.0067682c0.18784 0.012066 0.36443 0.097749 0.4946 0.23998l0.034606 0.037811c0.10735 0.11729 0.25531 0.18441 0.4105 0.18619l0.15998 0.001841c0.051708 5.9498e-4 0.10034-0.025651 0.12986-0.070084 0.02939-0.044238 0.078354-0.069678 0.12979-0.067438l0.11042 0.004809c0.12795 0.0055725 0.25436 0.031302 0.37498 0.07632l0.18268 0.068181c0.16334 0.060963 0.33259 0.10294 0.5047 0.12517l0.11524 0.014885c0.0052025 6.72e-4 0.01044 0.001009 0.015682 0.001009 0.070704 0 0.12802-0.059983 0.12802-0.13398 0-0.099019-0.026611-0.19604-0.076794-0.27999l-0.076121-0.12733c-0.075552-0.12638-0.14365-0.25748-0.20392-0.39256l-0.020601-0.046175c-0.044445-0.099616-0.046-0.21438-0.0042719-0.31528 0.0020745-0.0050158 0.0038948-0.010143 0.0054536-0.015359 0.0245-0.081989-0.01915-0.16924-0.097495-0.19488l-0.080781-0.026437c-0.15603-0.051063-0.2959-0.14547-0.4047-0.27316l-0.078353-0.09195c-0.099865-0.1172-0.17475-0.25529-0.21968-0.40511-0.040781-0.13599-0.15959-0.22987-0.29573-0.23368l-0.41802-0.011702c-0.14841-0.0041547-0.28613-0.081764-0.37113-0.20914l-0.028616-0.042884c-0.070764-0.10604-0.12898-0.22068-0.17338-0.34139-0.037614-0.10226-0.14456-0.15648-0.24455-0.12398l-0.12273 0.039885c-0.19835 0.064461-0.40688 0.087458-0.61371 0.067683l-0.14933-0.014278c-0.16545-0.015819-0.32452-0.074541-0.46284-0.17086l-0.090032-0.062694c-0.08017-0.055826-0.16663-0.10105-0.25742-0.13465-0.083578-0.03093-0.1767-0.0090513-0.23962 0.056299l-0.055673 0.05782c-0.10238 0.10633-0.23755 0.1711-0.38136 0.18274l-0.54209 0.04387c-0.099731 0.008071-0.19421 0.050036-0.26904 0.1195-0.075431 0.070024-0.16781 0.11699-0.26704 0.13575l-0.014083 0.0026625c-0.10832 0.020478-0.20889 0.072596-0.29012 0.15034l-0.023139 0.022147c-0.095217 0.091135-0.21821 0.14402-0.34714 0.14928l-0.041212 0.0016791c-0.12035 0.0049034-0.24044 0.015137-0.35997 0.030675l-0.11395 0.014814c-0.1744 0.022671-0.31435 0.16159-0.34519 0.34265l-0.038229 0.22443c-0.026842 0.15758-0.092296 0.30518-0.18996 0.42837-0.095034 0.11987-0.2334 0.193-0.38199 0.20189l-0.1496 0.008951c-0.0044638 2.6712e-4 -0.0089183 6.8394e-4 -0.013357 0.00125-0.11462 0.014617-0.19622 0.12371-0.18226 0.24367 0.017808 0.15294 0.0069939 0.30804-0.031839 0.45665l-0.045825 0.17537c-0.037414 0.14318-0.13539 0.26057-0.26594 0.31861l-0.059211 0.026325c-0.0056728 0.0025222-0.011181 0.0054324-0.016488 0.008712-0.066788 0.041268-0.088962 0.13138-0.049528 0.20128 0.05292 0.093798 0.075711 0.20288 0.065027 0.31123l-0.030404 0.30834c-0.011504 0.11667-0.047316 0.22928-0.10491 0.32989-0.054367 0.094975-0.057933 0.21262-0.0094274 0.31101l0.10168 0.20625c0.048658 0.098699 0.057927 0.21356 0.025777 0.3194l-0.0055215 0.018177c-0.02952 0.09718-0.041101 0.19935-0.034127 0.30106 0.0066563 0.097068 0.056043 0.18538 0.13365 0.239l0.025747 0.017788zm7.9021 7.2266c0.08445 0.12302 0.24639 0.15485 0.36774 0.072272l0.1982-0.13488c0.10015-0.068152 0.17597-0.16902 0.21569-0.28692l0.0084728-0.025151c0.035163-0.10438 0.075366-0.20682 0.12046-0.30694l0.047982-0.10654c0.01313-0.029153 0.026561-0.058156 0.040291-0.087004l0.038618-0.081143c0.037936-0.079708 0.10439-0.14053 0.18493-0.16927l0.056371-0.020113c0.076382-0.027253 0.1283-0.10162 0.12988-0.18606 0.0017-0.090597 0.035171-0.17738 0.094043-0.24382l0.074656-0.084261c0.072398-0.081713 0.13828-0.1695 0.19697-0.26247l0.0070836-0.011221c0.053594-0.084896 0.091471-0.17957 0.11166-0.2791 0.019822-0.097722 0.0085201-0.19955-0.032179-0.28991l-0.022374-0.049678c-0.03708-0.08233-0.06228-0.16996-0.074776-0.26003-0.012563-0.090549-0.022456-0.18148-0.029666-0.27267l-0.023186-0.29326c-0.0085764-0.10848 0.022012-0.21637 0.085729-0.3024 0.06569-0.088693 0.11864-0.18696 0.15718-0.29167l0.01398-0.037984c0.0018557-0.0050419 0.0034871-0.010171 0.0048889-0.015371 0.025053-0.092936-0.026628-0.18953-0.11543-0.21575-0.1104-0.032594-0.19828-0.12016-0.2348-0.23396l-0.024696-0.076961c-0.054944-0.17123-0.080783-0.35121-0.076344-0.53178l0.012706-0.51684c1.378e-4 -0.0056065 1.274e-4 -0.011216-3.14e-5 -0.016822-0.0047521-0.16778-0.13858-0.29977-0.2989-0.2948l-0.022449 6.963e-4c-0.18131 0.005624-0.35664-0.068168-0.48374-0.20359l-0.089598-0.095466c-0.07315-0.07794-0.14354-0.15866-0.21103-0.24201l-0.25104-0.31001c-0.10296-0.12714-0.21272-0.24807-0.32876-0.36221-0.11385-0.11198-0.25542-0.18832-0.40863-0.22035l-0.17992-0.037611c-0.12358-0.025834-0.24178-0.074491-0.34906-0.14369-0.094788-0.061143-0.21743-0.045225-0.29508 0.038298l-0.13255 0.14259c-0.013922 0.014976-0.030954 0.026391-0.049776 0.03336-0.067627 0.02504-0.14185-0.012034-0.16577-0.082806l-0.0036046-0.010662c-0.042266-0.12502-0.034172-0.26264 0.022425-0.38129 0.0090046-0.018877 0.013061-0.039917 0.011755-0.060972-0.0040753-0.065708-0.058278-0.11552-0.12107-0.11125l-0.16134 0.010959c-0.18104 0.012297-0.36227-0.020887-0.52857-0.096786l-0.10219-0.046638c-0.09975-0.045526-0.2066-0.071639-0.3153-0.077058-0.10701-0.0053345-0.21299 0.02396-0.30352 0.083897l-0.042611 0.02821c-0.11885 0.078683-0.2561 0.12162-0.39671 0.1241l-0.33153 0.0058499c-0.14538 0.0025652-0.28707 0.048314-0.40856 0.13192-0.12261 0.084372-0.26088 0.14066-0.40574 0.16516l-0.27026 0.045716c-0.13652 0.023092-0.26557 0.080762-0.37591 0.16799-0.11126 0.087951-0.23558 0.15617-0.36799 0.20193l-0.047371 0.016371c-0.16155 0.055833-0.30462 0.15856-0.41252 0.29622l-0.10584 0.13503c-0.071035 0.090624-0.074175 0.22016-0.0076223 0.31444 0.06753 0.095661 0.18613 0.13512 0.29405 0.097833l0.15785-0.054538c0.081696-0.028227 0.17136-0.013925 0.24131 0.038489 0.071961 0.053919 0.1596 0.079967 0.2479 0.073681l0.25129-0.017889c0.14597-0.010391 0.29259 0.0029751 0.43464 0.039622l0.0021701 5.598e-4c0.14025 0.036182 0.27288 0.099238 0.39118 0.18598 0.11759 0.086211 0.25333 0.14142 0.39569 0.16092l0.0077075 0.0010559c0.14944 0.020474 0.29744 0.051191 0.44304 0.091953l0.089981 0.025191c0.10098 0.02827 0.18778 0.09592 0.24259 0.18906 0.05603 0.095216 0.088689 0.20346 0.095071 0.31508l0.001726 0.030191c0.006339 0.11088 0.096866 0.19571 0.20287 0.1901l0.061096-0.0032326c0.16679-0.0088245 0.33364 0.01601 0.49147 0.073148l0.085786 0.031058c0.10495 0.037998 0.19807 0.10513 0.26939 0.19423 0.071749 0.089633 0.12342 0.19494 0.15121 0.30819l0.033267 0.13554c0.037009 0.15079 0.055734 0.30585 0.055734 0.46153v0.049001c0 0.10941 0.07017 0.2052 0.17113 0.23361 0.11381 0.032026 0.2243 0.075771 0.32987 0.13059l0.051007 0.026489c0.13831 0.071828 0.26081 0.17303 0.35967 0.29715l0.053608 0.067302c0.11695 0.14683 0.1824 0.33111 0.18546 0.52223l0.0010754 0.067096c0.0024176 0.15084-0.022086 0.30082-0.072253 0.44225-0.042821 0.12072 0.010474 0.25558 0.12227 0.30939l0.078948 0.037996c0.1493 0.071858 0.27787 0.18363 0.37274 0.32406 0.093997 0.13914 0.14226 0.30646 0.13751 0.47679l-0.0085583 0.30705c-0.0026233 0.094115-0.03381 0.18491-0.089043 0.25924-0.050406 0.067829-0.052122 0.16229-0.0042175 0.23208l0.070116 0.10214zm-6.392-5.1101c-0.009494-0.0013932-0.019152-9.316e-4 -0.028486 0.0013616-0.041683 0.010242-0.06754 0.053907-0.057754 0.097528l0.045972 0.20491c0.035571 0.15855 0.061753 0.31926 0.078396 0.48119 0.015876 0.15447 0.094853 0.29418 0.21657 0.38313l0.03928 0.028704c0.14559 0.10639 0.23581 0.27742 0.24426 0.46304l0.0088576 0.1945c0.0047312 0.10389-7.773e-4 0.20801-0.016438 0.31072-0.01502 0.098507 0.009803 0.19911 0.068518 0.2777l0.040328 0.053973c0.086231 0.11541 0.13696 0.25549 0.14547 0.40172l0.031691 0.54457c0.0075257 0.12932-0.080827 0.24313-0.20332 0.26191l-0.092238 0.014139c-3.691e-4 5.66e-5 -7.38e-4 1.148e-4 -0.0011066 1.749e-4 -0.067993 0.011076-0.11453 0.077738-0.10395 0.14889 0.012861 0.086466 0.033649 0.17144 0.062076 0.25373l0.0073514 0.021282c0.032879 0.095185 0.042661 0.19742 0.028468 0.29754l-0.039119 0.27595c-0.02811 0.19829-0.091465 0.38932-0.18679 0.56319l-0.069246 0.12631c-0.048639 0.088722-0.12389 0.15817-0.21409 0.19758-0.087582 0.038266-0.15291 0.11735-0.17642 0.21358l-0.089827 0.36762c-0.051347 0.21014-0.14061 0.40807-0.26298 0.58313l-0.0034807 0.0049796c-0.11974 0.1713-0.27371 0.31322-0.45121 0.41589l-0.11863 0.068618c-0.10047 0.058116-0.20378 0.1107-0.30949 0.15755-0.098631 0.043706-0.16859 0.13776-0.18486 0.24855l-0.048515 0.33026c-0.028295 0.19261-0.11327 0.3712-0.24309 0.51091l-0.12728 0.13697c-0.0482 0.05187-0.097596 0.10251-0.14815 0.15186l-0.13996 0.13666c-0.13601 0.1328-0.3234 0.19166-0.50681 0.15921l-0.36823-0.06516c-0.1077-0.019058-0.21607-0.033782-0.32485-0.044137l-0.037675-0.0035863c-0.021675-0.0020633-0.043411 0.0031905-0.062026 0.014992-0.048132 0.030514-0.063513 0.096085-0.034355 0.14646l0.0028262 0.0048823c0.067766 0.11707 0.18321 0.19502 0.31306 0.21139l0.20279 0.025567c0.11325 0.014278 0.2226 0.052202 0.32159 0.11152 0.099582 0.059682 0.20605 0.1058 0.3168 0.13722l0.027665 0.0078498c0.12848 0.036456 0.26242 0.047007 0.39467 0.031092l0.15403-0.018536c0.15667-0.018854 0.31537 0.0025801 0.46233 0.062443l0.11418 0.046511c0.066564 0.027114 0.14215 0.010386 0.19253-0.042608 0.054355-0.057178 0.122-0.098552 0.19629-0.12005l0.082026-0.023736c0.12965-0.037517 0.26356-0.056534 0.39808-0.056534h0.087362c0.11379 0 0.22585 0.029074 0.32646 0.084696l0.036993 0.020452c0.064876 0.035866 0.14524 0.011634 0.18193-0.054858 0.043214-0.078308 0.10339-0.14491 0.17567-0.19445l0.25552-0.17511c0.050925-0.034899 0.10256-0.068654 0.15486-0.10124l0.087355-0.054424c0.10887-0.067828 0.23203-0.10654 0.3586-0.11271l0.36283-0.017701c0.13827-0.0067452 0.25648-0.10632 0.29233-0.24623 0.039782-0.15526 0.1067-0.30146 0.19736-0.43122l0.010544-0.01509c0.08721-0.12481 0.19027-0.23659 0.30634-0.33226 0.11426-0.094173 0.25173-0.15243 0.39641-0.16798l0.070342-0.0075611c0.15982-0.017179 0.27838-0.16301 0.26898-0.33086l-0.0010127-0.018081c-0.01052-0.18782-0.0087346-0.37618 0.0053447-0.56374l0.0073459-0.097861c0.0090482-0.12054 0.047395-0.23666 0.1114-0.33733 0.065014-0.10226 0.13555-0.20054 0.21127-0.29439l0.0729-0.090346c0.055619-0.06893 0.10923-0.13961 0.16076-0.21194l0.092535-0.12989c0.071912-0.10094 0.068183-0.24035-0.0090134-0.33693-0.086306-0.10797-0.14432-0.23756-0.16837-0.37606l-0.0063463-0.036554c-0.028314-0.16309-0.020641-0.3308 0.022434-0.49031l0.01615-0.059807c0.038873-0.14395 0.10494-0.27828 0.19428-0.39505 0.075-0.098014 0.060617-0.24095-0.032247-0.32046l-0.17186-0.14716c-0.13882-0.11886-0.22545-0.29172-0.23997-0.4788l-0.014703-0.18946c-0.0053452-0.068878-0.012218-0.13762-0.020612-0.20616l-0.019711-0.16096c-0.020172-0.16472-0.11795-0.30786-0.26034-0.38114l-0.070688-0.036379c-0.11698-0.060204-0.21667-0.15171-0.28896-0.26524-0.072799-0.11433-0.12235-0.2431-0.14557-0.37832l-0.030241-0.17608c-0.0096662-0.056281-0.046711-0.1032-0.097706-0.12374-0.05472-0.022042-0.11051-0.041054-0.16714-0.056959l-0.31804-0.089321c-0.10561-0.029661-0.19958-0.093458-0.2685-0.1823-0.002607-0.0033602-0.0053413-0.0066099-0.0081962-0.0097416-0.059201-0.06494-0.1575-0.06736-0.21955-0.0054056l-0.098303 0.098146c-0.0194 0.019368-0.046249 0.028294-0.072773 0.024191-0.04753-0.0073525-0.080365-0.053636-0.073339-0.10338 0.022833-0.16165-0.04009-0.32352-0.16427-0.42258l-0.13134-0.10477c-0.091623-0.073089-0.18986-0.13662-0.29332-0.18967-0.088415-0.045342-0.19527-0.013487-0.24758 0.073808l-0.044524 0.074299c-0.0090923 0.015173-0.02236 0.02711-0.038057 0.034244-0.042948 0.019516-0.092881-0.0010992-0.11153-0.046044l-0.019-0.045794c-0.02801-0.067509-0.087561-0.11491-0.15721-0.12513zm-1.2215 1.0018c-0.0073704-0.021258-0.020763-0.039656-0.038389-0.052739-0.047834-0.035504-0.11411-0.023704-0.14804 0.026356-0.077438 0.11426-0.13275 0.24329-0.16281 0.3798l-0.0041323 0.018765c-0.028558 0.12968-0.14336 0.21807-0.27016 0.20801l-0.10203-0.0080935c-0.0062301-4.942e-4 -0.012476-7.376e-4 -0.018724-7.298e-4 -0.13468 1.689e-4 -0.24373 0.11457-0.24357 0.25551 2.033e-4 0.17755-0.061833 0.34901-0.17435 0.48189l-0.061144 0.072208c-0.10627 0.12549-0.24412 0.21718-0.39781 0.26458l-0.07797 0.024047c-0.095973 0.0296-0.16699 0.11453-0.1823 0.218-0.016203 0.10954-0.068543 0.20968-0.14794 0.28305l-0.088317 0.081614c-0.13715 0.12674-0.30957 0.20405-0.49186 0.22053l-0.49685 0.044919c-0.16697 0.015095-0.31797 0.10985-0.40935 0.25687-0.091719 0.14756-0.24148 0.2447-0.40857 0.26501l-0.20091 0.024421c-0.16476 0.020028-0.3315 0.013167-0.49425-0.020336l-0.10666-0.021957c-0.092573-0.019057-0.18418-0.042942-0.27447-0.071566-0.082525-0.026161-0.17204 6.092e-4 -0.2289 0.068452l-0.10736 0.12811c-0.12567 0.14995-0.3138 0.22556-0.50308 0.20219l-0.63537-0.078456c-0.10166-0.012553-0.19925-0.049148-0.28539-0.10701-0.086932-0.058397-0.16655-0.12793-0.23702-0.20697l-0.24448-0.27425c-0.031394-0.035217-0.080383-0.04633-0.12289-0.027878-0.047072 0.020432-0.095415 0.037499-0.14469 0.051083l-0.55867 0.154c-0.11271 0.031068-0.23279 0.0080784-0.32768-0.06274-0.097342-0.072642-0.21419-0.1111-0.33374-0.10985l-0.10528 0.0011037c-0.017814 1.868e-4 -0.035546 0.0025531-0.052835 0.0070508-0.12247 0.03186-0.19707 0.16159-0.16663 0.28975l0.046668 0.19647c0.025806 0.10864 0.014037 0.22333-0.033223 0.32376-0.04479 0.095181-0.033889 0.20874 0.028097 0.2927l0.058706 0.079514c0.088006 0.1192 0.18987 0.22645 0.30322 0.31928 0.11282 0.092389 0.20826 0.2059 0.28147 0.33476l0.14923 0.26268c0.075621 0.13311 0.21265 0.21469 0.36063 0.21469 0.1538 0 0.3023 0.05876 0.41763 0.16524l0.30071 0.27766c0.078529 0.07251 0.19415 0.079751 0.28038 0.01756 0.015177-0.010945 0.032958-0.017267 0.051365-0.018262 0.054916-0.0029673 0.10173 0.041216 0.10457 0.098686l0.0022578 0.045764c0.0068177 0.13819 0.098283 0.25588 0.22617 0.29103l0.43256 0.11888c0.1643 0.045153 0.32412 0.10655 0.47732 0.18335 0.022598 0.01133 0.047499 0.016714 0.072537 0.015686 0.08494-0.0034895 0.15109-0.078379 0.14776-0.16727l-0.01293-0.34469c-0.0037821-0.10082 0.045753-0.19565 0.1289-0.24674 0.014294-0.0087843 0.030765-0.012914 0.047311-0.011863 0.046003 0.0029218 0.081033 0.044318 0.078241 0.092461l-0.009405 0.16217c-0.0075316 0.12987 0.041936 0.25624 0.13436 0.34326l0.0028315 0.0026656c0.088286 0.083115 0.21318 0.10848 0.32477 0.065968 0.1195-0.045533 0.24691-0.0639 0.37372-0.053879l0.36287 0.028675c0.17301 0.013671 0.34684-0.010474 0.51045-0.0709 0.16451-0.06076 0.31963-0.14642 0.46041-0.25426l0.055156-0.04225c0.10676-0.081775 0.2095-0.16914 0.30784-0.26175 0.095333-0.089781 0.21789-0.14147 0.34607-0.14596l0.38477-0.013487c0.21565-0.0075588 0.3951-0.17582 0.42588-0.39931l0.025752-0.18701c0.01785-0.12962 0.073732-0.25024 0.15992-0.34519 0.087134-0.095985 0.19437-0.1695 0.31326-0.21474l0.10187-0.038772c0.1775-0.067556 0.3132-0.22021 0.36478-0.41035l0.062722-0.23123c0.055018-0.20283 0.16081-0.38659 0.30642-0.5323l0.024074-0.024088c0.11624-0.11631 0.14089-0.30097 0.059555-0.44617l-0.036842-0.065768c-0.064304-0.11479-0.074309-0.25424-0.027106-0.3778 0.04977-0.13027 0.11117-0.25534 0.18338-0.37355l0.084426-0.13821c0.050688-0.082978 0.04838-0.1898-0.0058423-0.27029-0.058761-0.087233-0.094878-0.18894-0.10482-0.29516l-0.013002-0.13897c-0.010605-0.11335-0.0088755-0.2276 0.0051558-0.34054 0.013874-0.11168 0.0019594-0.22521-0.034746-0.33108l-0.043626-0.12583zm-1.4188-0.75832c0.002166-0.011302 0.0030672-0.02283 0.0026855-0.03435-0.0027163-0.081971-0.068416-0.14612-0.14674-0.14327l-0.25895 0.0093978c-0.091636 0.0033256-0.18335 0.0035591-0.275 7e-4l-0.4412-0.013764c-0.22816-0.0071176-0.45486-0.040655-0.67597-0.099999l-0.23799-0.063876c-0.063116-0.01694-0.12585-0.035391-0.18816-0.055338l-0.46231-0.148c-0.22392-0.071685-0.41075-0.23484-0.51822-0.45256l-0.051155-0.10363c-0.070427-0.14268-0.21756-0.22521-0.37009-0.20759-0.1664 0.019219-0.33477-0.003274-0.49122-0.065621l-0.13081-0.052131c-0.22624-0.090162-0.38481-0.30582-0.41011-0.55778l-0.027583-0.27463c-0.014448-0.14385-0.10361-0.26761-0.23179-0.32172-0.1384-0.058424-0.26976-0.13365-0.39139-0.22413l-0.059855-0.044523c-0.15846-0.11787-0.28032-0.28188-0.35043-0.47164l-0.020467-0.055393c-0.058943-0.15953-0.067902-0.33453-0.025584-0.49974l0.015168-0.059216c0.03316-0.12946 0.049956-0.2629 0.049956-0.39693 0-0.12826-0.053113-0.25022-0.14561-0.33437l-0.14257-0.12969c-0.14804-0.13467-0.24106-0.32367-0.25987-0.528l-2.3491e-4 -0.0025522c-0.019284-0.20952-0.011679-0.4208 0.022612-0.62821l0.0085153-0.051504c0.0024759-0.014975 0.0034182-0.030184 0.0028108-0.045369-0.0047165-0.11791-0.099879-0.2095-0.21255-0.20456l-0.044103 0.0019321c-0.12808 0.0056108-0.24227 0.086083-0.2954 0.20817l-0.0022361 0.0051382c-0.055915 0.12849-0.13047 0.24716-0.22102 0.35181l-0.041201 0.047617c-0.063612 0.073517-0.12955 0.1448-0.19769 0.21372l-0.093249 0.094307c-0.10361 0.10479-0.1715 0.24227-0.19324 0.39134-0.022261 0.15266-0.061738 0.30202-0.11761 0.44495l-0.019961 0.051068c-0.047556 0.12167-0.12751 0.22648-0.23034 0.30197-0.099131 0.072771-0.15967 0.1902-0.16334 0.31686l-0.013655 0.4704c-0.0060136 0.20716-0.043305 0.41202-0.11049 0.60699l-0.0249 0.072255c-0.043601 0.12652 0.010403 0.26715 0.12554 0.32691 0.13459 0.069857 0.27291 0.13157 0.41426 0.18483l0.045889 0.01729c0.021546 0.0081181 0.038773 0.025448 0.047375 0.047657 0.016716 0.043156-0.0031634 0.092322-0.044401 0.10982l-0.097848 0.041507c-0.060728 0.025761-0.10491 0.08189-0.11743 0.1492l-0.018025 0.096852c-0.0013712 0.0073677-0.0027247 0.014739-0.0040604 0.022114l-0.10122 0.55889c-0.01557 0.085965-0.023406 0.17327-0.023406 0.26076 0 0.080182 0.044556 0.15304 0.11413 0.18663l0.22107 0.10673c0.11196 0.054054 0.2168 0.12297 0.31194 0.20506l0.078571 0.067788c0.04315 0.037228 0.086994 0.073565 0.13151 0.10899l0.041953 0.033386c0.070061 0.055754 0.11823 0.13639 0.13545 0.22672l0.087624 0.45979c0.022613 0.11866 0.1053 0.21494 0.21564 0.2511l0.15459 0.050652c0.016244 0.0053224 0.032519 0.010543 0.048823 0.015662l0.21128 0.06633c0.15504 0.048674 0.29717 0.13434 0.4152 0.25026l0.0013305 0.0013067c0.12038 0.11822 0.23247 0.24535 0.33541 0.3804l0.034813 0.045674c0.074303 0.097481 0.19592 0.14095 0.31168 0.1114 0.12606-0.032177 0.25548-0.047619 0.38522-0.045961l0.14701 0.0018782c0.1239 0.001583 0.24553 0.034968 0.35423 0.097224 0.11008 0.063052 0.2259 0.11447 0.34572 0.15349l0.042509 0.013842c0.11809 0.038454 0.24649 0.018562 0.34888-0.054051 0.10521-0.074616 0.23056-0.11184 0.35753-0.10616l0.47565 0.021252c0.08812 0.0039373 0.17401-0.029649 0.23806-0.093098l0.017397-0.017231c0.055199-0.054674 0.11178-0.1078 0.1697-0.15931l0.054985-0.048908c0.091857-0.081705 0.20747-0.12841 0.32796-0.1325l0.45359-0.015378c0.11668-0.0039558 0.22203-0.074126 0.27486-0.18307 0.053869-0.11109 0.15497-0.18878 0.27237-0.20933l0.19243-0.033671c0.087187-0.015256 0.15877-0.080514 0.18517-0.1688 0.02823-0.094418 0.078827-0.17983 0.14708-0.24828l0.15965-0.16011c0.084346-0.084586 0.14188-0.1942 0.16485-0.31407z" fill="#decfc8"/>
</svg>
